<svg width="17" height="17" viewBox="0 0 17 17" fill="none" xmlns="http://www.w3.org/2000/svg">
<path d="M16.9569 8.5615C11.155 9.95179 9.95179 11.155 8.5615 16.9569C8.55692 16.9695 8.54855 16.9804 8.53755 16.9882C8.52655 16.9959 8.51344 17 8.5 17C8.48656 17 8.47345 16.9959 8.46245 16.9882C8.45145 16.9804 8.44308 16.9695 8.4385 16.9569C7.04821 11.155 5.84504 9.95179 0.0431047 8.5615C0.0304742 8.55692 0.0195619 8.54855 0.01185 8.53755C0.00413809 8.52655 0 8.51344 0 8.5C0 8.48656 0.00413809 8.47345 0.01185 8.46245C0.0195619 8.45145 0.0304742 8.44308 0.0431047 8.4385C5.84504 7.04821 7.04821 5.84503 8.4385 0.0431039C8.44308 0.0304735 8.45145 0.0195608 8.46245 0.0118489C8.47345 0.004137 8.48656 0 8.5 0C8.51344 0 8.52655 0.004137 8.53755 0.0118489C8.54855 0.0195608 8.55692 0.0304735 8.5615 0.0431039C9.95179 5.84503 11.155 7.04821 16.9569 8.4385C16.9695 8.44308 16.9804 8.45145 16.9881 8.46245C16.9959 8.47345 17 8.48656 17 8.5C17 8.51344 16.9959 8.52655 16.9881 8.53755C16.9804 8.54855 16.9695 8.55692 16.9569 8.5615V8.5615Z" fill="#F78865"/>
</svg>
